<?xml version="1.0" standalone="no"?>
<!DOCTYPE svg PUBLIC "-//W3C//DTD SVG 20010904//EN" "http://www.w3.org/TR/2001/REC-SVG-20010904/DTD/svg10.dtd">
<svg version="1.0" xmlns="http://www.w3.org/2000/svg" width="356px" height="365px" viewBox="0 0 1566 465"
  preserveAspectRatio="xMidYMid meet">

  <g transform="translate(80, 950) scale(0.300000,-0.300000)" fill="#000000" stroke="none">
    <path d="M2229 4390 c-81 -10 -280 -60 -409 -102 -277 -90 -632 -327 -837
-558 -289 -326 -466 -738 -508 -1185 -19 -195 -18 -295 0 -435 60 -441 254
-833 561 -1130 119 -115 266 -236 372 -306 218 -144 510 -247 866 -305 134
-22 147 -22 325 -10 316 22 468 64 771 214 150 75 186 96 188 115 2 12 9 22
16 22 7 0 21 9 31 20 10 11 27 20 38 20 10 0 40 21 66 48 25 26 104 101 175
166 95 88 142 141 182 204 77 118 146 259 142 289 -2 20 -13 7 -56 -70 -30
-52 -92 -143 -138 -203 -46 -59 -84 -112 -84 -116 0 -4 -6 -8 -13 -8 -16 0
-57 -42 -57 -58 0 -7 -5 -12 -11 -12 -18 0 -89 -60 -89 -76 0 -8 -6 -14 -14
-14 -8 0 -29 -14 -47 -31 -43 -40 -129 -104 -150 -112 -9 -3 -47 -25 -85 -49
-162 -104 -396 -188 -653 -234 -112 -20 -168 -24 -326 -24 -183 0 -200 2 -386
39 -253 51 -392 107 -685 277 -74 43 -194 135 -194 149 0 7 -13 18 -30 25 -16
7 -30 17 -30 22 0 21 -61 86 -113 122 -30 21 -60 50 -67 64 -6 15 -30 54 -53
87 -78 115 -149 249 -155 292 -2 24 -9 43 -13 43 -5 0 -9 8 -9 18 0 9 -13 45
-30 79 -64 136 -110 332 -131 556 -11 119 -9 150 8 133 4 -3 10 -52 13 -109 5
-79 12 -110 28 -137 12 -19 22 -43 22 -52 0 -61 193 -534 236 -578 12 -12 14
-10 15 15 5 90 -5 174 -28 239 -14 39 -29 105 -33 146 -5 41 -18 124 -29 184
-36 186 -28 542 15 696 33 116 114 328 156 405 175 321 390 529 732 709 156
81 268 120 439 151 251 45 590 31 798 -33 119 -37 275 -100 340 -138 267 -156
354 -225 523 -418 89 -102 132 -145 134 -133 4 18 42 24 42 7 0 -6 23 -59 51
-118 28 -59 75 -165 104 -236 29 -71 55 -124 58 -119 8 13 -75 253 -100 289
-11 16 -27 51 -37 79 -9 27 -45 95 -80 150 -81 128 -86 143 -49 147 27 3 27 4
-45 85 -39 45 -81 84 -92 88 -11 3 -20 12 -20 20 0 28 -238 219 -368 294 -146
85 -345 165 -526 212 -44 12 -153 30 -241 39 l-160 18 105 1 c131 1 297 -25
455 -73 324 -97 441 -146 461 -190 5 -11 18 -22 29 -24 11 -2 25 -9 30 -16 6
-6 44 -34 85 -61 96 -63 198 -161 297 -282 43 -53 93 -113 112 -132 32 -34 33
-35 16 -6 -76 129 -313 386 -449 488 -70 53 -84 67 -65 67 13 0 68 -30 122
-66 53 -37 100 -65 102 -62 7 7 -174 145 -252 192 -113 68 -326 163 -468 210
-230 75 -298 86 -555 91 -124 2 -255 0 -291 -5z m596 -199 c152 -21 259 -53
412 -123 65 -30 93 -48 93 -60 0 -10 -2 -18 -5 -18 -2 0 -60 22 -127 49 -68
27 -177 65 -244 85 l-120 36 -262 6 c-245 7 -262 8 -262 26 0 17 12 18 188 18
126 0 232 -7 327 -19z m-556 -27 c-21 -21 -134 -33 -127 -13 6 17 40 27 98 28
40 1 43 0 29 -15z" />
    <path d="M1203 1121 c-13 -11 -23 -24 -23 -29 0 -5 30 -34 68 -64 282 -227
352 -269 545 -329 82 -26 137 -48 137 -56 0 -14 0 -14 180 -49 116 -22 309
-43 258 -28 -10 3 -18 12 -18 20 0 11 16 14 71 14 52 0 70 -3 67 -12 -3 -7
-24 -16 -49 -19 -66 -9 -30 -12 126 -9 337 5 749 149 1050 367 33 24 61 39 63
34 8 -24 -62 -90 -172 -163 -178 -118 -292 -168 -492 -216 -259 -63 -273 -65
-576 -59 -244 5 -286 8 -393 31 -79 17 -122 23 -129 16 -6 -6 -7 -10 -3 -10 4
0 49 -11 102 -25 165 -43 382 -68 521 -61 258 13 502 61 671 132 151 63 312
154 388 219 36 30 70 55 76 55 9 0 108 83 176 147 42 40 31 53 -45 53 l-68 0
-79 -66 c-105 -87 -170 -131 -301 -202 -167 -90 -325 -146 -474 -167 -25 -3
-67 -11 -93 -17 -56 -12 -467 14 -606 38 -46 8 -85 14 -87 12 -1 -2 35 -15 82
-28 46 -14 84 -28 84 -32 0 -15 -105 -8 -190 12 -173 41 -340 109 -340 137 0
7 3 13 6 13 19 0 91 -26 102 -37 16 -15 103 -42 157 -48 22 -2 31 -2 20 1 -11
3 -27 12 -35 19 -8 7 -44 21 -79 30 -86 22 -189 72 -305 148 -53 34 -127 80
-166 102 -38 22 -70 44 -70 48 0 17 -95 96 -115 96 -11 0 -30 -8 -42 -18z" />
  </g>
</svg>
