<?xml version="1.0" encoding="UTF-8"?>
<svg version="1.1" viewBox="0 0 2048 816" width="1280" height="1280" xmlns="http://www.w3.org/2000/svg">
<path transform="translate(0)" d="m0 0h2048v816h-2048z" fill="#F99930"/>
<path transform="translate(586,132)" d="m0 0 6 1 8 7 1 6-2 21v39l4 59 1 21 11-1h57l16 2 17 5 8 6 5 8 2 6-1 12-5 13-8 12-9 11-12 13-8 7-11 10-20 15-20 13-16 9-28 14-24 10h-9l-5-8-1-3v-7l4-5 14-7 20-8h2l-2-59-1-42-4-2-3-5-1-8 7-6-1-19-4-42-1-19v-50l2-18 3-6 5-4z" fill="#030102"/>
<path transform="translate(839,259)" d="m0 0h7l7 6 2 4v3l23-5 28-4 34-3 17-1h48l22 1 9 1 5 5 2 4v7l-5 8-2 1h-83l-33 2-28 3-28 5h-3l6 21 5 19v2l9-1h110l19 1 4 5 1 2v10l-3 5-4 2h-131l3 21v8l8-1 108-5 36-1h40l11 1 4 5 3 6-1 5-7 8-4 1-72 1-95 4-28 1v19l-3 5-3 3-3 1h-8l-6-5-2-6-1-11-1-3-8-4-3-5-1-9 4-5 6-4-1-12-3-13v-3h-10l-5-5-2-3v-7l4-6 6-4h2l-6-25-4-10-8-2-5-6-1-8 5-7 3-1 1-3-1-8 4-6z" fill="#030102"/>
<path transform="translate(1224,145)" d="m0 0 7 2 5 6 1 8 49-3 20-1h38l6 7 1 9-7 8-2 1-68 3-34 2-10 1-3 20-2 23-1 20v43l2 38 5 54 5 38v12l-3 6-6 3h-8l-5-3-3-7-5-35-4-38-3-43-1-24v-49l2-32 2-23-71 5h-26l-6-7v-10l4-5 4-2 38-4 57-4 7-1 6-12 6-5z" fill="#030102"/>
<path transform="translate(208,145)" d="m0 0 7 2 5 7 1 7 49-3 20-1h37l5 4 3 5v7l-7 8-1 1-51 2-50 3h-13l-1 12-3 32-1 20v42l2 37 4 46 6 49v11l-3 6-6 3h-9l-5-5-3-11-5-38-4-43-2-29-1-28v-45l2-31 3-24-59 4-12 1h-27l-5-6-1-9 3-5 4-3 20-3 47-4 36-3 6-12 5-4z" fill="#030102"/>
<path transform="translate(464,237)" d="m0 0 6 1 7 4 4 7-1 6-4 6-2 2 1 9 10 37 17 60 13 51 1 6v8l-4 6-5 3h-7l-7-5-5-18-9-35-13-45-1-1-15 3-26 4-3 3-11 23-11 27-5 19-9 21-6 9-7 3-6-1-4-3-4-7 1-8 12-34 14-34 5-10-19 10-9 1-5-2-5-8 1-7 7-8 22-10 19-6h4l2-5 11-20 12-19 14-19 10-13 8-10z" fill="#030102"/>
<path transform="translate(1479,238)" d="m0 0h8l8 7 1 8-4 8-4 1 6 25 15 53 10 35 10 41 2 10v7l-3 5-3 3-3 1h-10l-4-5-3-9-6-25-12-43-6-21-42 7-4 5-10 21-11 28-7 23-8 19-5 6-7 3-6-1-5-5-2-3v-9l11-32 12-30 6-14 2-3-19 10-3 1h-8l-5-5-3-5 1-6 4-6 9-6 25-10 13-4 6-9 10-18 15-23 7-10 7-9 12-14z" fill="#030102"/>
<path transform="translate(1691,270)" d="m0 0 14 1 13 4 7 5 4 7-2 6-6 7-6 1-16-4h-16l-16 5-16 8-12 8-14 12-10 10-10 13-9 15-4 11-1 4v10l5 10 8 6 12 4 6 1h29l25-4 25-6 27-9 27-11 13-5h6l8 8 1 8-4 6-7 4-28 12-28 10-21 6-25 5-21 2h-25l-15-3-16-5-8-4-10-9-8-14-2-10v-11l3-15 8-19 9-14 9-11 11-12 12-11 14-10 17-10 19-8 14-3z" fill="#030102"/>
<path transform="translate(1895,126)" d="m0 0 7 2 6 7v7l-7 28-5 24-4 30-3 28-1 15 3-1 49-1 7 3 4 4 1 3v8l-4 5-6 3h-55l2 54 3 33 5 33 3 15-1 9-8 7h-9l-6-6-6-28-4-27-3-34-1-21v-33l-19 3h-14l-5-4-1-2v-11l5-5 13-4 20-3 3-25 3-30 6-36 6-26 5-14 5-8z" fill="#030102"/>
<path transform="translate(780,86)" d="m0 0h6l6 4 3 4v10l-6 38-4 37-2 32v41l3 49 6 55 8 52 6 36v9l-5 6-7 3-6-1-5-6-3-12-6-32-5-30-6-48-4-44-2-39v-36l2-36 5-44 6-34 3-9 4-4z" fill="#030102"/>
<path transform="translate(631,310)" d="m0 0h28l19 1 16 3-1 8-8 13-12 14-10 10-8 7-12 10-19 14-14 8h-2l-3-86 1-1z" fill="#F99930"/>
<path transform="translate(1126,625)" d="m0 0h9l10 5 4 5 2 5 1 7v27l-3 10-6 7-7 3h-11l-8-4-5-8-2-7v-31l3-9 6-7z" fill="#030102"/>
<path transform="translate(715,625)" d="m0 0h17l10 3 5 5 3 6v16l-5 8-6 4 2 6 10 17v5l-7-1-7-9-8-14-3-2-5-1v23l-2 4-6-1-1-4v-36l1-28z" fill="#030102"/>
<path transform="translate(452,625)" d="m0 0h17l10 3 5 5 3 6v15l-5 8-7 5 2 5 9 15 2 7-1 1-7-1-10-16-6-9-6-2v25l-3 3-5-1-1-2v-65z" fill="#030102"/>
<path transform="translate(998,625)" d="m0 0h6l3 3 12 27 8 15 1-44h8l1 1v64l-4 2-1 3-5-3-12-26-10-19v43l-1 3h-8v-67z" fill="#030102"/>
<path transform="translate(1185,625)" d="m0 0h7l8 16 12 26 2 5 1-15 1-32 8 1v67l-3 2-5-1-4-5-8-18-11-23v-2h-2l1 7v40l-3 2-5-1v-68z" fill="#030102"/>
<path transform="translate(1437,624)" d="m0 0 5 1 4 9 9 34 5 19v7l-6 1-3-5-3-10h-20l-2 11-5 5-4-3 1-8 10-39 5-19z" fill="#030102"/>
<path transform="translate(519,625)" d="m0 0h31l2 1-1 7-24 1v20h21l2 1v7l-22 1-1 23h24l2 1v6l-2 1-29 1-4-1v-68z" fill="#030102"/>
<path transform="translate(594,625)" d="m0 0h9l8 4 5 6 1 7-3 3-3-1-4-6-8-4-6 2-3 3v6l3 5 18 11 6 7 1 2v12l-6 8-8 4h-11l-8-4-5-7v-8l3-1 6 5 4 5 2 1h8l5-2 1-10-6-7-16-10-6-7-1-3v-8l5-8 6-4z" fill="#030102"/>
<path transform="translate(1264,625)" d="m0 0h27l1 1v5l-4 2h-22v21h22l2 7-1 1-23 1v23h26l1 1v6l-3 1h-32v-68z" fill="#030102"/>
<path transform="translate(847,625)" d="m0 0h27l7 2-1 5-2 1h-23v21h21l2 1v6l-1 1-22 1 1 22 24 1 2 4-1 3-4 1h-30l-1-1v-67z" fill="#030102"/>
<path transform="translate(1127,634)" d="m0 0h8l6 4 2 4v34l-3 6-3 3-9 1-5-3-3-5-2-9v-21l3-9z" fill="#F99930"/>
<path transform="translate(648,625)" d="m0 0h32l1 1v7h-25v21h16l8 1v7h-24v24h25l1 1v6l-1 1-31 1-2-1z" fill="#030102"/>
<path transform="translate(1500,625)" d="m0 0h8l7 3 7 6 2 4v6l-3 2-4-1-5-8-4-2h-8l-5 5-1 3v30l3 9 4 3h7l6-4 5-8 4 1 1 8-4 6-5 4-5 2h-12l-7-4-5-8-2-16 1-25 2-6 6-7z" fill="#030102"/>
<path transform="translate(780,625)" d="m0 0 4 1 4 15 6 28 2 11 11-41 4-13h7l1 2-11 43-5 19-4 5-3 1-5-5-7-26-8-34v-5z" fill="#030102"/>
<path transform="translate(1549,625)" d="m0 0h37l2 1v6l-4 2h-11v52l-1 7-1 1h-7l-1-59-13-2-2-2v-5z" fill="#030102"/>
<path transform="translate(1359,625)" d="m0 0h37l3 2-1 5-5 2-10 1v58l-2 1h-7l-1-4 1-56h-10l-5-2z" fill="#030102"/>
<path transform="translate(878,363)" d="m0 0h95v1l-79 1-9 1-3 4h-2l1 5v9h2l3 3h23l87-4 78-1 8 1v1l-86 2-108 5h-8l-2-15z" fill="#FCA53A"/>
<path transform="translate(955,625)" d="m0 0 6 1 1 1v66l-3 2-5-1v-68z" fill="#030102"/>
<path transform="translate(721,634)" d="m0 0h13l6 3 2 6v9l-4 6-9 2h-7l-1-2z" fill="#F99930"/>
<path transform="translate(458,634)" d="m0 0h13l6 3 2 8-1 10-4 3-12 2-4-1z" fill="#F99930"/>
<path transform="translate(955,256)" d="m0 0h27l45 2 5 1v1h-75l-41 3-26 3-22 4-8 2h-4v-2l29-6 12-2 26-3 15-1 3-1z" fill="#FCA53A"/>
<path transform="translate(719,322)" d="m0 0h1l-1 8-4 10-3 3-4 8h-2v3l-3 3-8 10-11 11-10 7-5 4-1 2h-3l-2 5-6 3-3 1-1 3-9 5-5 5-7 5-8 3-16 9h-2v-2l17-9 20-13 19-14 15-13 15-14 9-11 8-11 6-10z" fill="#FDA63B"/>
<path transform="translate(1479,338)" d="m0 0 3 1 15 53 8 31 3 12 4 6-1 2-3-2v-2h-2l-3-5-3-16-5-15-1-11-2-7h-2l-2-10-1-10h-2l-2-5-1-9-5-8v-2l-3-1z" fill="#FCA63A"/>
<path transform="translate(455,244)" d="m0 0 1 3-9 11-14 19-12 19-16 28-23 7-9 4-4-1 22-9 9-3 5-5 6-12 11-18 6-9 8-11 5-5 12-16z" fill="#FCA63A"/>
<path transform="translate(572,304)" d="m0 0 2 1 3 5 3 2 1 3 2 76v22l-15 6-4-1 14-6 2-4v-12l-1-18-1-55-4-12-2-3z" fill="#FDA63B"/>
<path transform="translate(979,411)" d="m0 0h45v1l-30 1-11 1-60 2-33 2-4 5-1 13-4 6-3 1 4-8 1-19 28-2z" fill="#FCA439"/>
<path transform="translate(868,318)" d="m0 0 2 3 2 9h2l1 5 48-1 68 1 17 1v1l-136 1-3-10z" fill="#FEAA3E"/>
<path transform="translate(465,338)" d="m0 0 2 2 17 60 6 24v7l-2-2-3-11-1-5-2-7-4-9-1-11-4-9-1-2-1-11-3-6-4-10-2-4v-3l-3-1z" fill="#FCA63A"/>
<path transform="translate(1466,293)" d="m0 0 3 1 5 16v4l-10 3-12 2 1-4 11-19z" fill="#F99A31"/>
<path transform="translate(450,294)" d="m0 0 3 1 5 12 1 7-5 2-10 2h-7l8-16z" fill="#F99A31"/>
<path transform="translate(1471,242)" d="m0 0h2l-2 5-9 10-11 16-13 20-11 19-6 10-5 3-21 7-7 3-4-1 15-6 18-7 6-9 6-11 16-25 6-8 11-15 8-9z" fill="#FCA53A"/>
<path transform="translate(1439,639)" d="m0 0 2 4 5 23v5h-14l-1-4 6-21z" fill="#F99930"/>
<path transform="translate(1213,151)" d="m0 0 1 4-5 9-20 2-56 4-29 3 1-2 8-2 44-4 46-3 5-3z" fill="#FBA338"/>
<path transform="translate(197,151)" d="m0 0h2l-2 6-3 6-1 1-83 7-8 1h-11v-1l29-4 35-3 31-2 6-3z" fill="#FCA53A"/>
<path transform="translate(437,343)" d="m0 0h9v1l-9 1v2l-5 2-9 2-2 5-8 15-5 10-9 25h-1v-7l9-22 11-24 4-7 8-2z" fill="#FDA73B"/>
<path transform="translate(604,271)" d="m0 0h1l1 10 1 2h10l22-1 31 1 21 3 11 3 1 2-7-1-14-3-10-1h-68z" fill="#FA9F35"/>
<path transform="translate(1444,344)" d="m0 0h8v3l-10 2-5 5-3 4-3 8-6 10-9 24-2 6h-1l1-9 11-27 10-21 4-4z" fill="#FCA53A"/>
<path transform="translate(1499,303)" d="m0 0 2 3 12 41 7 26 5 19 3 12v5l-2-1-12-48-15-51z" fill="#FCA439"/>
<path transform="translate(286,155)" d="m0 0h39v1l-75 4h-20v-1l21-2z" fill="#FCA53A"/>
<path transform="translate(1301,155)" d="m0 0h39v1l-23 1-31 2-19 1h-21v-1l22-2z" fill="#FCA53A"/>
<path transform="translate(878,363)" d="m0 0h95v1l-79 1-9 1-3 4h-2v5h-1l-1-5z" fill="#FEAA3E"/>
<path transform="translate(1566,404)" d="m0 0 3 3 7 12 9 8 10 5 24 7v1h-7l-16-5-9-4-14-9v-2l-2-1-4-8z" fill="#FCA53A"/>
<path transform="translate(1653,308)" d="m0 0 2 1-15 10-15 13-7 8h-2l-2 4-5 8h-2l-1 4h-2l-1 5h-2l-2 5-3 4 1-5 8-13 7-9 9-10 8-8 14-11z" fill="#FBA238"/>
<path transform="translate(756,243)" d="m0 0h1l1 7 2 39v22h-1l-2-20-1-15z" fill="#FCA338"/>
<path transform="translate(970,384)" d="m0 0h24l2 2-45 2h-17v-1l16-1 2-1z" fill="#FBA237"/>
<path transform="translate(844,364)" d="m0 0h6l4 16 1 12-4 3-2-1 3-5-4-18z" fill="#FCA63A"/>
<path transform="translate(465,338)" d="m0 0 2 2 6 21v3h-2l-3-6-4-10-2-4v-3l-3-1z" fill="#FDA63B"/>
<path transform="translate(604,271)" d="m0 0h1l1 10 1 2h10l22-1 28 1v1l-44 1-8 1h-11z" fill="#FEAA3E"/>
<path transform="translate(845,412)" d="m0 0 7 4 5 3 1 3 1 11 2 9-4-4-2-5-1-9-3-5-6-4z" fill="#FCA53A"/>
<path transform="translate(197,151)" d="m0 0h2l-2 6-3 6-1 1-21 2h-11v-1l9-1 2-1 14-1 6-3z" fill="#FBA237"/>
<path transform="translate(572,304)" d="m0 0 2 1 3 5 3 2 1 3v28h-1l-1-19-3-6-3-9z" fill="#FBA237"/>
<path transform="translate(1213,151)" d="m0 0 1 4-5 9-20 2h-11v-1l9-1 2-1 14-1 5-3z" fill="#FBA237"/>
<path transform="translate(1444,344)" d="m0 0h8v3l-10 2-10 10-1-2 5-9 3-3z" fill="#FDA73B"/>
<path transform="translate(1587,331)" d="m0 0 1 2-9 14-7 14-2 5h-2l1-5 8-17 8-11z" fill="#FCA439"/>
<path transform="translate(1862,244)" d="m0 0h1v18l-2 6-14 2h-8l3-2 17-3 1-2z" fill="#FCA53A"/>
<path transform="translate(1200,190)" d="m0 0 3 1-2 23h-2l-1-18-2-5z" fill="#FCA439"/>
<path transform="translate(1616,338)" d="m0 0h2v2h-2l-2 4-5 8h-2l-1 4h-2l-1 5h-2l-2 5-3 4 1-5 8-13 7-9z" fill="#FCA439"/>
<path transform="translate(576,263)" d="m0 0h2l2 21v7l-4 1z" fill="#FCA339"/>
<path transform="translate(185,190)" d="m0 0 3 1-3 24-2 1v-20l-1-3z" fill="#FCA339"/>
<path transform="translate(409,372)" d="m0 0h1l-1 7-8 21-2 6h-1v-7l9-22z" fill="#FCA439"/>
<path transform="translate(868,318)" d="m0 0 2 3 2 9h2l1 5h5v3h-8l-3-10z" fill="#FCA63A"/>
<path transform="translate(765,359)" d="m0 0h1l3 14 1 8v13l-2-4-3-23z" fill="#FCA53A"/>
<path transform="translate(388,354)" d="m0 0h2l-2 5-6 14-2 1 2-12 1-5z" fill="#FCA439"/>
<path transform="translate(484,404)" d="m0 0 2 4 4 16v7l-2-2-3-11-1-5z" fill="#FCA338"/>
<path transform="translate(831,304)" d="m0 0h5l4 10 2 7v9l-2-3-4-16-3-4v-2z" fill="#FCA338"/>
<path transform="translate(1587,430)" d="m0 0 6 1 16 5 10 3v1h-7l-16-5-9-4z" fill="#FCA338"/>
<path transform="translate(582,391)" d="m0 0h1v22l-15 6-4-1 14-6 3-4z" fill="#FBA137"/>
<path transform="translate(760,320)" d="m0 0h2l2 13v19h-1l-3-26z" fill="#FCA53A"/>
<path transform="translate(1172,164)" d="m0 0h15v1l-13 2h-19l2-2z" fill="#FDA73B"/>
<path transform="translate(719,322)" d="m0 0h1l-1 8-4 10-3 3-1 3-4 2 2-5 6-10z" fill="#FCA439"/>
<path transform="translate(1865,214)" d="m0 0h1v17l-1 11-2 1v-14z" fill="#FCA439"/>
<path transform="translate(1504,423)" d="m0 0h1l3 12 4 6-1 2-3-2v-2h-2l-3-5v-7z" fill="#FCA439"/>
<path transform="translate(1229,188)" d="m0 0 4 1-3 9-2 15h-1v-13z" fill="#FCA439"/>
<path transform="translate(604,271)" d="m0 0h1l1 10 1 2 10 1-2 2h-11z" fill="#FCA439"/>
<path transform="translate(1432,298)" d="m0 0 1 3-6 11h-3l2-6 4-6z" fill="#FDA63B"/>
<path transform="translate(197,151)" d="m0 0h2l-2 6-3 6-1 1h-5l1-3 5-5z" fill="#FCA439"/>
<path transform="translate(661,393)" d="m0 0m-2 1 2 1-5 5h-2l-1 3-8 4-2-1z" fill="#FCA439"/>
<path transform="translate(502,367)" d="m0 0 2 2 4 16-1 4-3-9-2-7z" fill="#FCA439"/>
<path transform="translate(1213,151)" d="m0 0 1 4-5 9h-4l2-4z" fill="#FCA439"/>
<path transform="translate(1403,354)" d="m0 0h2l-4 10h-2v-5l-2-1z" fill="#FCA338"/>
<path transform="translate(861,296)" d="m0 0 4 1v7l2 10-2-1z" fill="#FCA439"/>
<path transform="translate(1695,297)" d="m0 0h9l6 2v2h-8l-7-3z" fill="#FCA63A"/>
<path transform="translate(687,314)" d="m0 0h7l-1 8h-2z" fill="#FDA63B"/>
<path transform="translate(450,294)" d="m0 0 3 1 2 4-1 4-1-2-5-1 1-5z" fill="#FCA53A"/>
<path transform="translate(1113,169)" d="m0 0h8l-3 2-14 2 1-2z" fill="#FDA63B"/>
<path transform="translate(786,676)" d="m0 0h2l2 8v7l-2-3-2-6z" fill="#FCA439"/>
<path transform="translate(605,312)" d="m0 0h6l-1 4-2 1-1 8h-1z" fill="#FDA83D"/>
<path transform="translate(666,352)" d="m0 0h2l-2 4-7 6-2-1z" fill="#FCA63A"/>
<path transform="translate(831,304)" d="m0 0h5l2 4v6l-2-3-3-4v-2z" fill="#FCA53A"/>
<path transform="translate(1466,293)" d="m0 0 3 1v5l-6 1 2-5z" fill="#FCA439"/>
</svg>
