<?xml version="1.0" standalone="no"?>
<!DOCTYPE svg PUBLIC "-//W3C//DTD SVG 20010904//EN" "http://www.w3.org/TR/2001/REC-SVG-20010904/DTD/svg10.dtd">
<svg version="1.0" xmlns="http://www.w3.org/2000/svg" width="1080" height="500" viewBox="500 0 1020 508"
        preserveAspectRatio="xMidYMid meet">

        <g transform="translate(200.000000,558.000000) scale(0.15000,-0.15000)" fill="#000000" stroke="none">
                <!-- <path d="M4772 5377 c-7 -8 -13 -72 -14 -158 l-3 -144 -36 -6 c-39 -6 -113
-41 -143 -67 -27 -24 -71 -91 -86 -132 -10 -25 -16 -132 -21 -385 -4 -192 -10
-429 -14 -525 -7 -149 -5 -182 9 -223 59 -174 155 -249 342 -268 162 -17 281
1 329 50 25 27 27 34 19 63 -6 19 -22 39 -40 50 -38 22 -148 37 -273 38 -103
0 -142 15 -179 68 -27 37 -31 100 -38 594 -7 455 -5 489 39 540 52 60 25 58
742 58 731 0 699 3 753 -68 26 -34 27 -39 32 -221 4 -114 10 -194 18 -207 25
-46 105 -37 119 13 4 15 8 111 7 213 -1 169 -3 189 -23 231 -44 93 -135 165
-231 184 -70 14 -73 19 -67 96 3 37 13 96 23 129 12 42 14 64 7 71 -17 17
-125 22 -153 7 -25 -14 -25 -15 -25 -148 l0 -135 -197 -3 -198 -2 0 97 c1 66
5 106 15 123 19 33 19 66 -1 74 -24 9 -147 7 -162 -3 -17 -10 -18 -27 -8 -167
6 -91 5 -112 -7 -122 -11 -9 -67 -12 -203 -10 l-189 3 0 85 c0 56 7 105 19
143 16 50 17 60 5 68 -23 14 -155 11 -167 -4z"/>
<path d="M5381 4641 c-19 -12 -4 -51 20 -51 25 0 35 25 19 45 -14 17 -20 18
-39 6z"/> -->
                <!-- <path d="M5367 4574 c-20 -20 -6 -35 31 -32 47 4 52 32 7 36 -17 2 -34 0 -38
-4z"/> -->
                <!-- <path d="M5173 4525 c-7 -21 4 -89 16 -93 6 -2 8 -9 6 -15 -8 -22 17 -43 130
-110 67 -39 74 -41 98 -29 12 7 36 20 52 29 114 67 138 88 130 111 -2 6 0 12
5 12 5 0 14 19 21 42 9 37 9 44 -7 55 -18 13 -50 9 -69 -8 -9 -9 -6 -21 19
-79 4 -10 -3 -21 -21 -32 -25 -14 -31 -14 -47 -2 -11 8 -30 14 -42 14 -20 0
-21 3 -13 46 5 25 6 50 3 55 -3 5 -28 9 -56 9 l-50 0 4 -55 c3 -50 1 -55 -18
-55 -11 0 -29 -6 -40 -14 -16 -12 -22 -12 -47 2 -18 11 -25 22 -21 32 26 65
27 73 9 87 -25 18 -54 17 -62 -2z"/> -->
                <!-- <path d="M4925 4447 c-3 -7 -5 -54 -3 -103 l3 -89 40 -13 c38 -12 40 -15 40
-52 1 -35 -2 -39 -25 -42 -17 -2 -26 -10 -28 -25 -3 -22 0 -23 73 -23 60 0 77
3 82 16 7 18 -12 34 -42 34 -18 0 -20 5 -17 40 4 34 8 41 31 46 45 10 51 13
51 28 0 12 -17 16 -77 18 l-78 3 -5 85 c-4 71 -8 85 -23 88 -9 2 -19 -3 -22
-11z"/> -->
                <!-- <path d="M5842 4447 c-6 -7 -12 -46 -14 -87 l-3 -75 -75 -5 c-58 -4 -75 -8
-75 -20 0 -10 13 -17 35 -20 33 -5 35 -8 41 -47 5 -39 3 -43 -15 -43 -31 0
-50 -16 -43 -34 5 -13 22 -16 82 -16 73 0 76 1 73 23 -2 15 -11 23 -30 25 -25
3 -26 6 -21 40 7 45 6 44 46 57 l32 10 0 99 c0 99 -9 123 -33 93z"/> -->
                <!-- <path d="M5101 4411 c-21 -13 -5 -41 23 -41 32 0 40 14 20 34 -18 18 -24 19
-43 7z"/> -->
                <!-- <path d="M5656 4404 c-21 -21 -8 -37 25 -32 16 2 24 10 24 23 0 26 -28 31 -49
9z"/> -->
                <!-- <path d="M5377 4253 c-12 -11 -8 -78 5 -91 9 -9 4 -12 -22 -12 -44 0 -65 -13
-57 -34 5 -13 23 -16 97 -16 74 0 92 3 97 16 7 20 -13 34 -49 34 -25 0 -27 3
-22 30 9 42 -3 80 -25 80 -10 0 -21 -3 -24 -7z"/> -->
                <!-- <path d="M6106 3796 c-119 -117 -229 -219 -246 -226 -23 -10 -37 -10 -55 -2
-21 10 -91 91 -160 185 -28 39 -62 59 -87 52 -11 -4 -38 -23 -59 -42 -31 -28
-39 -43 -39 -69 0 -29 13 -46 96 -129 131 -130 167 -150 269 -150 64 0 87 5
117 22 20 12 137 122 259 244 168 169 222 229 222 247 0 29 -53 82 -82 82 -12
0 -100 -80 -235 -214z"/> -->
                <path d="M4564 2975 c-18 -28 -27 -84 -49 -320 -15 -164 -8 -390 15 -526 6
-30 10 -71 10 -91 0 -20 4 -58 10 -85 5 -26 17 -91 26 -143 19 -103 29 -120
69 -120 40 0 51 35 35 117 -53 289 -76 605 -60 828 13 190 23 277 33 292 8 13
-8 53 -27 65 -21 15 -46 8 -62 -17z" />
                <path d="M8408 2838 c-27 -43 -56 -160 -69 -278 -21 -199 -19 -190 -49 -190
-36 0 -96 -25 -103 -44 -9 -23 4 -55 24 -61 10 -4 39 -3 63 0 l44 7 6 -134 c6
-138 16 -227 36 -314 13 -61 43 -85 78 -63 30 19 33 32 21 92 -14 67 -28 195
-36 320 l-5 97 93 0 c58 1 100 5 110 13 24 18 31 51 15 73 -12 16 -30 20 -108
24 l-93 5 3 90 c2 50 13 131 24 180 31 141 33 176 12 192 -26 19 -50 16 -66
-9z" />
                <path d="M3894 2819 c-17 -19 -19 -38 -19 -183 0 -88 4 -204 9 -257 6 -70 6
-98 -3 -103 -13 -9 -15 -48 -2 -62 8 -8 31 -243 31 -315 0 -27 -7 -31 -88 -65
-45 -19 -59 -45 -47 -83 5 -16 15 -21 41 -21 19 0 42 4 52 9 9 6 53 26 97 47
44 20 82 41 83 45 2 5 8 9 14 9 21 0 144 96 213 165 39 38 80 90 93 114 39 75
24 140 -38 168 -48 21 -177 36 -258 29 l-79 -7 -9 123 c-5 68 -9 180 -9 249 0
131 -8 159 -45 159 -9 0 -25 -9 -36 -21z m384 -646 c-16 -37 -129 -150 -202
-201 -33 -23 -60 -41 -61 -40 -1 2 -5 63 -8 136 l-6 132 144 0 145 0 -12 -27z" />
                <path d="M2579 2761 c-22 -30 -22 -30 -269 -50 -98 -8 -132 -24 -128 -61 5
-41 37 -48 183 -39 72 4 139 9 150 11 18 3 20 -1 15 -47 -9 -93 -4 -419 8
-545 7 -69 15 -150 18 -180 7 -79 20 -100 61 -100 44 0 52 22 42 120 -31 324
-39 500 -29 605 5 61 10 119 10 131 0 18 9 22 89 32 48 7 135 12 192 12 114 1
139 10 139 52 0 45 -12 48 -205 48 -168 0 -182 1 -198 20 -24 28 -53 25 -78
-9z" />
                <path d="M6090 2768 c-11 -12 -20 -25 -20 -28 0 -7 -68 -14 -256 -28 -104 -8
-127 -20 -122 -65 2 -23 9 -32 28 -37 21 -6 246 3 305 12 17 3 19 -1 15 -27
-10 -59 -5 -482 8 -595 18 -175 27 -229 39 -241 6 -6 26 -9 44 -7 l34 3 -1 85
c-1 47 -6 137 -12 200 -22 226 -25 364 -12 477 l12 110 88 11 c48 7 134 12
192 12 89 0 107 3 121 18 20 22 22 53 5 70 -8 8 -67 12 -198 12 -174 0 -186 1
-198 20 -16 26 -46 25 -72 -2z" />
                <path d="M3476 2448 c-39 -39 -137 -178 -162 -231 -12 -24 -27 -40 -44 -44
-14 -3 -53 -18 -87 -34 -71 -31 -90 -64 -58 -99 19 -21 60 -27 70 -10 3 6 10
10 15 10 10 0 5 -19 -46 -158 -31 -86 -35 -107 -26 -128 8 -17 20 -24 40 -24
27 0 62 26 62 46 0 5 6 20 13 34 8 14 19 48 26 75 7 28 28 84 48 127 l36 76
46 6 c101 13 93 16 109 -39 8 -27 18 -58 23 -67 5 -10 9 -25 9 -35 0 -9 4 -30
9 -47 5 -17 17 -57 26 -88 13 -47 21 -59 41 -64 17 -4 31 0 45 12 22 20 22 37
-2 134 -6 25 -13 60 -16 78 -3 18 -9 35 -14 38 -5 3 -9 16 -9 29 0 13 -4 34
-9 47 -10 24 -33 103 -52 173 -6 22 -15 55 -21 73 -7 24 -7 37 1 45 20 20 13
64 -14 81 -25 16 -26 16 -59 -16z m-6 -230 c0 -5 -9 -8 -20 -8 -18 0 -19 3 -8
20 9 14 14 16 20 7 4 -7 8 -15 8 -19z" />
                <path d="M6962 2430 c-20 -22 -63 -81 -95 -132 -78 -127 -79 -128 -98 -128
-23 0 -100 -35 -132 -60 -31 -25 -34 -50 -9 -73 21 -19 45 -21 73 -7 15 9 19
7 19 -5 0 -8 -4 -23 -9 -33 -15 -30 -29 -65 -56 -141 -24 -68 -24 -75 -10 -97
11 -17 25 -24 46 -24 28 0 33 6 60 65 16 35 29 74 29 85 0 11 4 28 9 38 5 9
25 51 44 93 35 75 36 76 79 82 23 4 55 9 69 13 24 5 26 2 43 -58 10 -35 22
-72 26 -83 9 -20 15 -48 29 -122 15 -81 58 -115 96 -76 14 13 15 27 10 77 -4
34 -11 65 -16 70 -5 6 -9 25 -9 42 0 18 -4 35 -9 38 -5 3 -11 20 -14 38 -3 18
-12 58 -22 88 -31 102 -37 125 -42 158 -3 18 -9 35 -14 38 -12 7 -11 61 1 69
18 11 11 64 -9 75 -33 17 -52 11 -89 -30z m8 -195 c0 -16 -6 -25 -15 -25 -18
0 -19 4 -3 30 16 26 18 25 18 -5z" />
                <path d="M4778 2389 c-10 -5 -18 -20 -18 -32 0 -12 -7 -31 -15 -41 -21 -28
-19 -45 13 -74 15 -15 34 -47 41 -71 12 -40 11 -44 -8 -58 -12 -8 -21 -24 -21
-37 0 -23 28 -56 47 -56 19 0 26 -70 9 -89 -22 -24 -20 -67 2 -83 10 -7 22
-26 26 -43 10 -40 24 -55 52 -55 31 0 54 25 54 59 0 28 1 28 78 36 42 4 195
10 339 14 247 6 263 7 277 26 22 29 19 52 -9 71 -23 15 -53 16 -343 6 -174 -5
-324 -12 -332 -13 -9 -3 -18 9 -26 31 l-12 35 223 5 c168 4 226 8 238 19 20
16 22 66 5 78 -7 4 -119 10 -248 13 l-234 5 -9 35 c-5 19 -10 49 -10 65 -2 29
0 30 53 38 30 5 161 11 292 13 219 5 237 7 254 25 14 15 16 25 8 47 -9 25 -15
28 -88 36 -80 9 -395 -5 -493 -21 -44 -8 -57 -6 -80 9 -32 20 -41 21 -65 7z" />
                <path d="M7690 2355 c-88 -18 -176 -71 -260 -155 -41 -41 -81 -87 -87 -103
-47 -102 -57 -147 -42 -196 15 -50 51 -88 108 -115 39 -18 64 -21 161 -21 109
1 238 23 265 47 5 4 17 8 27 8 10 0 26 4 36 9 28 15 90 41 97 41 4 0 20 9 37
21 36 26 36 66 -2 87 -23 13 -31 12 -85 -13 -33 -15 -68 -31 -77 -36 -10 -5
-26 -9 -36 -9 -10 0 -22 -3 -26 -7 -20 -20 -149 -42 -249 -43 -103 0 -109 1
-134 26 -22 22 -24 31 -19 65 8 50 40 107 92 161 54 56 69 68 131 101 47 25
61 28 138 26 73 -2 87 0 99 16 44 60 -59 113 -174 90z" />
                <path d="M3447 1123 c-4 -3 -7 -55 -7 -114 0 -96 2 -109 19 -118 24 -13 31 -5
31 37 0 37 18 40 35 5 15 -29 36 -53 46 -53 13 0 11 47 -3 70 -10 15 -9 24 2
45 20 37 18 98 -2 118 -17 17 -107 24 -121 10z m96 -55 c13 -20 -6 -48 -34
-48 -15 0 -19 7 -19 36 0 31 3 35 21 32 12 -2 27 -10 32 -20z" />
                <path d="M3687 1123 c-10 -9 -8 -216 2 -231 5 -9 25 -12 62 -10 46 3 54 6 54
23 0 16 -8 21 -37 23 -27 2 -39 9 -44 24 -7 25 9 38 49 38 24 0 28 4 25 23 -2
17 -11 23 -38 27 -32 5 -36 10 -31 40 0 6 12 10 25 10 35 0 56 10 56 26 0 10
-15 14 -58 14 -32 0 -62 -3 -65 -7z" />
                <path d="M3905 1100 c-20 -39 -7 -67 53 -110 47 -34 50 -53 9 -58 -19 -2 -27
1 -27 12 0 17 -35 22 -45 6 -9 -14 16 -48 45 -60 54 -22 110 27 96 84 -3 14
-25 38 -51 56 -25 17 -45 35 -45 41 0 21 32 21 54 0 25 -23 36 -19 36 14 0 32
-19 45 -67 45 -37 0 -44 -4 -58 -30z" />
                <path d="M4137 1123 c-10 -9 -8 -216 2 -231 5 -9 25 -12 62 -10 46 3 54 6 54
23 0 16 -8 21 -42 23 -40 3 -43 5 -43 32 0 26 4 29 38 32 29 2 37 7 37 23 0
16 -8 21 -37 23 -33 3 -38 7 -38 28 0 19 5 24 26 24 32 0 66 18 59 31 -7 10
-108 13 -118 2z" />
                <path d="M4360 1011 c0 -66 4 -122 9 -126 12 -7 31 26 31 54 0 27 20 27 27 1
3 -11 9 -20 14 -20 5 0 9 -6 9 -14 0 -18 30 -30 44 -16 7 7 6 17 -3 33 -8 12
-19 29 -24 38 -8 13 -6 21 6 34 27 26 31 63 14 101 -16 33 -19 34 -72 34 l-55
0 0 -119z m88 42 c3 -30 1 -33 -22 -33 -23 0 -26 4 -26 36 0 31 3 35 23 32 17
-2 23 -11 25 -35z" />
                <path d="M4577 1123 c-3 -5 1 -35 10 -68 8 -33 18 -76 22 -95 21 -96 60 -106
81 -20 6 25 16 63 21 85 23 89 23 105 0 105 -15 0 -23 -10 -31 -42 -6 -24 -16
-59 -23 -78 l-11 -35 -7 40 c-15 82 -25 110 -41 113 -9 2 -18 -1 -21 -5z" />
                <path d="M4817 1123 c-13 -12 -8 -218 5 -231 7 -7 35 -12 64 -12 39 0 53 4 58
17 8 21 -10 33 -52 33 -30 0 -33 2 -30 28 2 23 8 28 36 30 28 3 33 7 30 25 -2
17 -11 23 -36 25 -28 3 -33 7 -30 25 2 15 12 23 34 28 75 15 66 39 -15 39 -32
0 -61 -3 -64 -7z" />
                <path d="M5190 1011 c0 -77 4 -122 11 -127 22 -13 29 22 27 131 -3 95 -5 110
-20 113 -16 3 -18 -8 -18 -117z" />
                <path d="M5332 1013 c3 -110 4 -118 23 -118 17 0 21 8 25 55 l5 55 29 -58 c33
-66 41 -73 62 -56 12 9 14 34 12 123 -3 107 -4 111 -25 114 -22 3 -23 0 -23
-65 -1 -67 -1 -68 -15 -36 -40 93 -47 103 -71 103 l-25 0 3 -117z" />
                <path d="M5747 1112 c-13 -14 -17 -39 -17 -104 0 -98 15 -122 75 -122 60 0 75
24 75 124 0 71 -3 90 -18 103 -26 23 -94 22 -115 -1z m83 -42 c16 -31 8 -121
-12 -133 -30 -19 -48 8 -48 72 0 56 11 81 37 81 7 0 17 -9 23 -20z" />
                <path d="M5980 1011 c0 -66 4 -122 8 -125 18 -11 36 16 42 61 l6 48 21 -46
c24 -51 47 -74 63 -64 6 4 10 53 10 126 0 112 -1 119 -20 119 -18 0 -20 -7
-21 -72 -1 -40 -4 -64 -8 -53 -3 11 -17 44 -30 73 -19 41 -28 52 -47 52 -24 0
-24 0 -24 -119z" />
                <path d="M6237 1124 c-12 -13 -8 -219 5 -232 19 -19 114 -16 122 4 10 25 -2
34 -45 34 -38 0 -40 2 -37 28 2 23 8 28 36 30 28 3 33 7 30 25 -2 17 -11 23
-36 25 -29 3 -33 6 -30 30 3 23 9 28 41 32 21 3 39 10 40 15 2 11 -115 20
-126 9z" />
                <path d="M6590 1114 c0 -9 9 -18 20 -21 17 -5 20 -15 22 -102 3 -91 4 -96 26
-99 21 -3 22 -1 22 83 0 89 10 125 35 125 8 0 15 7 15 15 0 12 -14 15 -70 15
-57 0 -70 -3 -70 -16z" />
                <path d="M6827 1068 c-10 -35 -22 -77 -27 -94 -13 -39 -13 -81 -1 -89 6 -3 20
8 32 25 27 36 56 39 69 6 11 -31 25 -39 38 -23 8 9 7 28 -4 68 -8 29 -18 63
-20 74 -19 78 -28 95 -49 95 -18 0 -24 -11 -38 -62z m53 -63 c0 -16 -6 -25
-15 -25 -18 0 -18 5 -5 31 14 26 20 24 20 -6z" />
                <path d="M7036 1108 c-11 -16 -16 -46 -16 -99 0 -68 3 -79 26 -104 21 -23 31
-26 57 -21 38 8 54 23 59 56 4 31 -27 41 -37 11 -4 -14 -15 -21 -31 -21 -23 0
-24 2 -24 75 0 86 14 103 54 66 24 -23 36 -19 36 11 0 31 -25 48 -69 48 -30 0
-44 -6 -55 -22z" />
                <path d="M7240 1118 c0 -7 10 -18 23 -23 20 -9 22 -17 25 -108 3 -95 3 -98 25
-95 21 3 22 9 25 98 2 88 4 96 25 105 41 18 23 30 -50 33 -55 2 -73 0 -73 -10z" />
        </g>
</svg>
