<?xml version="1.0" standalone="no"?>
<!DOCTYPE svg PUBLIC "-//W3C//DTD SVG 20010904//EN"
 "http://www.w3.org/TR/2001/REC-SVG-20010904/DTD/svg10.dtd">
<svg version="1.0" xmlns="http://www.w3.org/2000/svg"
 width="1566.000000pt" height="465.000000pt" viewBox="0 0 1566.000000 465.000000"
 preserveAspectRatio="xMidYMid meet">

<g transform="translate(0.000000,465.000000) scale(0.100000,-0.100000)"
fill="#000000" stroke="none">
<path d="M2229 4390 c-81 -10 -280 -60 -409 -102 -277 -90 -632 -327 -837
-558 -289 -326 -466 -738 -508 -1185 -19 -195 -18 -295 0 -435 60 -441 254
-833 561 -1130 119 -115 266 -236 372 -306 218 -144 510 -247 866 -305 134
-22 147 -22 325 -10 316 22 468 64 771 214 150 75 186 96 188 115 2 12 9 22
16 22 7 0 21 9 31 20 10 11 27 20 38 20 10 0 40 21 66 48 25 26 104 101 175
166 95 88 142 141 182 204 77 118 146 259 142 289 -2 20 -13 7 -56 -70 -30
-52 -92 -143 -138 -203 -46 -59 -84 -112 -84 -116 0 -4 -6 -8 -13 -8 -16 0
-57 -42 -57 -58 0 -7 -5 -12 -11 -12 -18 0 -89 -60 -89 -76 0 -8 -6 -14 -14
-14 -8 0 -29 -14 -47 -31 -43 -40 -129 -104 -150 -112 -9 -3 -47 -25 -85 -49
-162 -104 -396 -188 -653 -234 -112 -20 -168 -24 -326 -24 -183 0 -200 2 -386
39 -253 51 -392 107 -685 277 -74 43 -194 135 -194 149 0 7 -13 18 -30 25 -16
7 -30 17 -30 22 0 21 -61 86 -113 122 -30 21 -60 50 -67 64 -6 15 -30 54 -53
87 -78 115 -149 249 -155 292 -2 24 -9 43 -13 43 -5 0 -9 8 -9 18 0 9 -13 45
-30 79 -64 136 -110 332 -131 556 -11 119 -9 150 8 133 4 -3 10 -52 13 -109 5
-79 12 -110 28 -137 12 -19 22 -43 22 -52 0 -61 193 -534 236 -578 12 -12 14
-10 15 15 5 90 -5 174 -28 239 -14 39 -29 105 -33 146 -5 41 -18 124 -29 184
-36 186 -28 542 15 696 33 116 114 328 156 405 175 321 390 529 732 709 156
81 268 120 439 151 251 45 590 31 798 -33 119 -37 275 -100 340 -138 267 -156
354 -225 523 -418 89 -102 132 -145 134 -133 4 18 42 24 42 7 0 -6 23 -59 51
-118 28 -59 75 -165 104 -236 29 -71 55 -124 58 -119 8 13 -75 253 -100 289
-11 16 -27 51 -37 79 -9 27 -45 95 -80 150 -81 128 -86 143 -49 147 27 3 27 4
-45 85 -39 45 -81 84 -92 88 -11 3 -20 12 -20 20 0 28 -238 219 -368 294 -146
85 -345 165 -526 212 -44 12 -153 30 -241 39 l-160 18 105 1 c131 1 297 -25
455 -73 324 -97 441 -146 461 -190 5 -11 18 -22 29 -24 11 -2 25 -9 30 -16 6
-6 44 -34 85 -61 96 -63 198 -161 297 -282 43 -53 93 -113 112 -132 32 -34 33
-35 16 -6 -76 129 -313 386 -449 488 -70 53 -84 67 -65 67 13 0 68 -30 122
-66 53 -37 100 -65 102 -62 7 7 -174 145 -252 192 -113 68 -326 163 -468 210
-230 75 -298 86 -555 91 -124 2 -255 0 -291 -5z m596 -199 c152 -21 259 -53
412 -123 65 -30 93 -48 93 -60 0 -10 -2 -18 -5 -18 -2 0 -60 22 -127 49 -68
27 -177 65 -244 85 l-120 36 -262 6 c-245 7 -262 8 -262 26 0 17 12 18 188 18
126 0 232 -7 327 -19z m-556 -27 c-21 -21 -134 -33 -127 -13 6 17 40 27 98 28
40 1 43 0 29 -15z"/>
<path d="M1203 1121 c-13 -11 -23 -24 -23 -29 0 -5 30 -34 68 -64 282 -227
352 -269 545 -329 82 -26 137 -48 137 -56 0 -14 0 -14 180 -49 116 -22 309
-43 258 -28 -10 3 -18 12 -18 20 0 11 16 14 71 14 52 0 70 -3 67 -12 -3 -7
-24 -16 -49 -19 -66 -9 -30 -12 126 -9 337 5 749 149 1050 367 33 24 61 39 63
34 8 -24 -62 -90 -172 -163 -178 -118 -292 -168 -492 -216 -259 -63 -273 -65
-576 -59 -244 5 -286 8 -393 31 -79 17 -122 23 -129 16 -6 -6 -7 -10 -3 -10 4
0 49 -11 102 -25 165 -43 382 -68 521 -61 258 13 502 61 671 132 151 63 312
154 388 219 36 30 70 55 76 55 9 0 108 83 176 147 42 40 31 53 -45 53 l-68 0
-79 -66 c-105 -87 -170 -131 -301 -202 -167 -90 -325 -146 -474 -167 -25 -3
-67 -11 -93 -17 -56 -12 -467 14 -606 38 -46 8 -85 14 -87 12 -1 -2 35 -15 82
-28 46 -14 84 -28 84 -32 0 -15 -105 -8 -190 12 -173 41 -340 109 -340 137 0
7 3 13 6 13 19 0 91 -26 102 -37 16 -15 103 -42 157 -48 22 -2 31 -2 20 1 -11
3 -27 12 -35 19 -8 7 -44 21 -79 30 -86 22 -189 72 -305 148 -53 34 -127 80
-166 102 -38 22 -70 44 -70 48 0 17 -95 96 -115 96 -11 0 -30 -8 -42 -18z"/>
<path d="M7382 742 c-65 -35 -93 -121 -54 -168 9 -12 54 -41 100 -65 46 -24
92 -52 102 -62 28 -26 26 -78 -4 -106 -21 -20 -32 -22 -88 -18 -34 2 -81 11
-103 20 -47 18 -55 15 -29 -14 52 -57 157 -76 224 -40 67 35 92 118 52 178 -8
13 -59 46 -113 75 l-99 51 0 48 c0 39 4 50 21 60 22 11 103 8 163 -7 26 -6 27
-5 17 14 -11 22 -89 52 -130 52 -14 -1 -41 -9 -59 -18z"/>
<path d="M8470 751 c0 -13 61 -218 101 -340 43 -129 52 -142 89 -133 17 3 88
206 134 380 24 88 24 92 6 92 -19 0 -36 -46 -122 -332 -13 -43 -26 -78 -30
-78 -3 0 -11 15 -16 33 -6 17 -34 109 -63 204 -46 153 -54 172 -75 176 -13 2
-24 1 -24 -2z"/>
<path d="M10390 753 c-8 -3 -33 -21 -56 -39 -96 -77 -113 -265 -34 -372 38
-51 93 -75 160 -70 79 6 123 36 162 112 28 55 30 66 26 145 -3 75 -7 92 -33
134 -37 59 -103 97 -167 96 -24 0 -50 -3 -58 -6z m152 -60 c46 -50 58 -86 58
-176 0 -100 -15 -143 -64 -180 -27 -21 -46 -27 -86 -27 -104 0 -154 74 -148
220 2 72 7 90 28 118 38 50 78 72 136 72 42 0 54 -4 76 -27z"/>
<path d="M12254 728 c-14 -28 -154 -434 -154 -448 0 -4 11 -5 24 -3 20 4 27
16 42 69 22 74 29 77 148 72 l69 -3 20 -67 c17 -59 22 -67 48 -70 16 -3 29 -4
29 -2 0 1 -15 42 -34 90 -18 49 -55 155 -82 236 -42 128 -51 147 -71 151 -18
3 -27 -2 -39 -25z m43 -20 c14 -23 73 -212 73 -235 0 -22 -4 -23 -72 -23 -40
0 -79 4 -86 9 -13 8 -8 28 54 244 6 20 20 22 31 5z"/>
<path d="M12680 747 c-61 -16 -106 -61 -129 -129 -37 -108 -26 -194 35 -274
66 -86 202 -99 268 -25 27 29 13 38 -29 18 -21 -10 -60 -17 -92 -17 -104 0
-143 55 -143 204 0 89 21 141 68 169 36 21 117 22 152 2 35 -20 40 -19 40 9 0
13 -8 27 -17 31 -36 14 -120 21 -153 12z"/>
<path d="M6497 743 c-8 -7 -10 -457 -2 -465 3 -3 17 -3 30 0 25 4 25 6 25 103
l0 99 45 0 c52 0 51 0 115 -110 36 -62 56 -86 74 -91 14 -4 26 -3 26 2 0 5
-25 52 -55 104 -59 102 -63 115 -40 115 8 0 30 14 50 31 31 28 35 36 35 81 0
60 -21 103 -60 123 -30 15 -229 22 -243 8z m240 -55 c18 -16 23 -32 23 -69 0
-41 -4 -50 -34 -73 -30 -23 -44 -26 -110 -26 l-76 0 0 88 c0 49 3 92 7 95 3 4
42 7 87 7 68 0 83 -3 103 -22z"/>
<path d="M6930 516 c0 -129 3 -236 8 -239 4 -2 67 -1 140 1 100 3 132 7 132
17 0 10 -27 14 -104 17 -57 1 -108 7 -113 11 -4 5 -10 49 -11 98 l-4 89 96 0
c89 0 96 1 96 20 0 19 -7 20 -95 20 l-95 0 0 85 0 86 103 -7 c100 -7 104 -6
110 15 5 21 3 21 -129 21 l-134 0 0 -234z"/>
<path d="M7718 743 c-2 -5 -2 -110 0 -235 3 -159 7 -228 15 -230 7 -2 69 -2
140 0 96 3 127 7 127 17 0 10 -27 14 -104 17 -57 1 -108 7 -113 11 -4 5 -10
49 -11 98 l-4 89 95 0 c90 0 95 1 90 20 -5 17 -14 20 -72 20 -110 0 -111 1
-111 80 0 80 0 80 126 80 73 0 82 2 87 20 5 19 0 20 -128 20 -74 0 -135 -3
-137 -7z"/>
<path d="M8110 517 c0 -129 3 -236 6 -239 3 -3 14 -4 25 -1 17 5 19 15 19 104
l0 99 48 0 47 -1 54 -90 c49 -82 90 -123 107 -106 3 3 -20 49 -50 102 -31 53
-56 100 -56 105 0 5 14 11 30 15 39 9 80 62 80 104 0 18 -8 49 -17 68 -25 54
-76 73 -195 73 l-98 0 0 -233z m246 169 c8 -11 14 -41 14 -68 0 -43 -3 -49
-37 -73 -31 -21 -49 -25 -105 -25 l-68 0 0 96 0 96 91 -4 c76 -2 93 -6 105
-22z"/>
<path d="M8910 515 l0 -235 139 0 c128 0 139 1 135 18 -5 15 -17 17 -116 13
l-110 -3 3 90 c2 50 8 94 12 99 5 4 47 10 93 12 75 3 84 5 84 22 0 17 -8 19
-89 19 -103 0 -101 -2 -101 96 l0 64 105 0 c58 0 105 2 105 4 0 2 3 11 6 20 5
14 -10 16 -130 16 l-136 0 0 -235z"/>
<path d="M9450 515 l0 -235 30 0 30 0 0 235 0 235 -30 0 -30 0 0 -235z"/>
<path d="M9647 668 c-4 -46 -7 -152 -7 -235 l0 -153 30 0 30 0 2 194 3 195 75
-137 c111 -201 143 -248 174 -254 l26 -5 0 186 c0 102 3 210 6 239 l7 52 -32
0 -31 0 0 -157 c0 -87 -3 -175 -7 -196 l-6 -38 -82 153 c-106 200 -132 238
-160 238 -20 0 -22 -6 -28 -82z"/>
<path d="M10770 568 c0 -101 -3 -207 -6 -235 l-7 -53 31 0 32 0 2 195 3 195
95 -168 c109 -191 140 -233 171 -225 19 5 21 11 15 57 -3 28 -6 133 -6 234 0
175 -1 182 -20 182 -19 0 -20 -7 -20 -202 l0 -203 -26 38 c-14 21 -59 99 -99
173 -95 173 -110 194 -141 194 l-24 0 0 -182z"/>
<path d="M11250 515 l0 -235 135 0 c122 0 135 2 135 18 0 16 -10 17 -111 14
l-111 -4 3 90 c2 50 8 94 12 99 5 4 48 10 97 11 77 3 87 6 83 21 -4 15 -16 16
-99 13 l-94 -4 0 84 0 85 53 7 c28 3 78 6 110 6 44 0 57 3 57 15 0 13 -22 15
-135 15 l-135 0 0 -235z"/>
<path d="M11740 740 c0 -18 38 -30 94 -30 l56 0 0 -213 c0 -118 3 -216 6 -219
3 -3 13 -4 24 -1 17 4 18 21 21 209 4 229 3 224 76 224 51 0 73 8 73 26 0 11
-32 14 -175 14 -106 0 -175 -4 -175 -10z"/>
<path d="M12920 730 c0 -18 7 -20 70 -20 l70 0 2 -217 3 -218 28 -3 27 -3 0
220 0 221 59 0 c68 0 91 6 91 26 0 11 -32 14 -175 14 -168 0 -175 -1 -175 -20z"/>
<path d="M2048 683 c6 -2 18 -2 25 0 6 3 1 5 -13 5 -14 0 -19 -2 -12 -5z"/>
<path d="M4948 515 l4 -25 679 0 679 0 0 25 0 25 -684 0 -683 0 5 -25z"/>
<path d="M13450 515 l0 -25 685 0 685 0 0 25 0 25 -685 0 -685 0 0 -25z"/>
</g>
</svg>
